# xmcd CD database file
#
# Track frame offsets:
#	150
#	17660
#	35205
#	53297
#	69887
#	87725
#	117587
#	136897
#	155610
#	173152
#	191357
#	214150
#
# Disc length: 3105 seconds
#
# Revision: 0
# Processed by: cddbd v1.5.1PL0 Copyright (c) Steve Scherf et al.
# Submitted via: CDex 1.51
#
DISCID=a30c1f0c
DTITLE=相曽晴日 - TRICTRAC
DYEAR=1987
DGENRE=JPop
TTITLE0=舞
TTITLE1=コーヒーハウスにて
TTITLE2=哀しみのトワイライトゾーン
TTITLE3=水彩画
TTITLE4=KAIHINホテル
TTITLE5=遠景
TTITLE6=赤の素描
TTITLE7=ビルディング・グレイ
TTITLE8=男と女で
TTITLE9=High noon High moon
TTITLE10=At the chinese restaurant
TTITLE11=水玉模様
EXTD=YEAR: 1987
EXTT0=
EXTT1=
EXTT2=
EXTT3=
EXTT4=
EXTT5=
EXTT6=
EXTT7=
EXTT8=
EXTT9=
EXTT10=
EXTT11=
PLAYORDER=
